<?xml version="1.0" standalone="no"?>
<!DOCTYPE svg PUBLIC "-//W3C//DTD SVG 20010904//EN"
 "http://www.w3.org/TR/2001/REC-SVG-20010904/DTD/svg10.dtd">
<svg version="1.0" xmlns="http://www.w3.org/2000/svg"
 width="900.000000pt" height="746.000000pt" viewBox="0 0 900.000000 746.000000"
 preserveAspectRatio="xMidYMid meet">

<g transform="translate(0.000000,746.000000) scale(0.100000,-0.100000)"
fill="#000000" stroke="none">
<path d="M4600 6611 c0 -7 -43 -13 -205 -26 -52 -5 -186 -41 -194 -53 -11 -16
-126 -32 -261 -36 -78 -2 -135 -8 -139 -14 -4 -6 -48 -14 -99 -18 -58 -4 -96
-12 -103 -20 -6 -8 -18 -14 -26 -14 -8 0 -49 -14 -91 -32 -42 -18 -84 -33 -93
-33 -22 -2 -189 -98 -184 -105 2 -4 -2 -7 -9 -7 -17 0 -185 -102 -194 -118
-10 -17 -102 -71 -134 -79 -14 -3 -39 -19 -55 -34 -35 -35 -174 -120 -222
-135 -20 -7 -34 -15 -31 -19 6 -8 -146 -109 -159 -105 -11 3 -131 -92 -128
-102 3 -12 -69 -102 -76 -94 -4 3 -18 -18 -32 -48 -13 -30 -20 -56 -15 -57 6
-2 7 -8 4 -14 -15 -25 -21 -213 -8 -263 16 -62 45 -126 53 -120 4 2 7 -4 7
-14 0 -23 96 -191 109 -191 13 0 85 -123 85 -145 0 -9 12 -27 26 -41 29 -30
136 -199 132 -211 -3 -12 33 -76 40 -69 7 7 78 -113 80 -134 1 -24 74 -194 85
-202 13 -8 23 -188 11 -197 -10 -7 -53 -168 -58 -216 -5 -40 -73 -176 -97
-193 -11 -7 -19 -23 -19 -35 -1 -25 -93 -145 -118 -154 -23 -8 -82 -64 -82
-78 0 -11 -119 -115 -143 -125 -26 -11 -57 -35 -57 -45 0 -6 -45 -57 -100
-114 -55 -57 -100 -110 -100 -118 0 -19 -49 -104 -71 -123 -24 -21 -80 -156
-85 -205 -7 -68 -40 -201 -46 -185 -4 8 -4 -1 -1 -22 3 -20 0 -82 -6 -137 -13
-108 -5 -263 11 -226 6 14 7 10 3 -15 -6 -45 29 -185 56 -218 10 -14 19 -28
19 -32 0 -5 14 -39 32 -77 17 -37 32 -75 33 -85 3 -21 46 -91 53 -84 5 6 88
-106 85 -115 -4 -11 108 -129 117 -124 10 6 96 -64 93 -76 -3 -8 95 -73 112
-74 16 -1 188 -88 203 -102 7 -7 23 -15 35 -17 127 -23 153 -29 157 -36 12
-19 138 -29 265 -22 72 5 132 5 135 1 8 -11 194 27 198 40 2 6 19 11 37 11 40
0 165 37 165 50 0 4 28 17 63 29 95 30 137 40 137 32 0 -5 19 -5 43 0 23 4 68
8 99 9 31 0 58 4 60 10 4 13 185 -5 204 -21 11 -9 90 -12 300 -13 243 -1 286
1 294 14 8 12 35 15 157 13 81 -1 169 -6 195 -11 27 -5 49 -5 50 -1 4 12 180
-39 193 -56 13 -16 137 -55 175 -55 16 0 30 -5 32 -10 4 -12 191 -50 198 -40
3 4 67 3 143 -2 134 -8 242 0 256 20 7 10 103 32 140 32 15 0 36 7 47 15 26
20 205 107 225 110 20 2 104 62 104 74 0 13 76 72 85 66 9 -6 131 122 127 133
-3 10 65 102 72 97 9 -5 63 81 66 103 1 9 15 46 32 83 17 36 34 76 38 90 4 13
14 28 21 34 15 12 44 119 44 162 0 16 5 34 12 41 14 14 15 194 2 310 -6 45 -7
82 -4 82 3 0 4 16 2 36 -3 21 -8 31 -12 24 -7 -12 -32 89 -36 145 -2 37 -61
176 -80 192 -20 15 -84 122 -84 139 0 7 -45 59 -100 116 -55 57 -100 108 -100
114 0 6 -12 17 -27 25 -39 19 -172 132 -172 146 -1 6 -27 34 -58 61 -62 53
-126 149 -129 191 -2 14 -3 33 -3 41 -1 12 -3 12 -10 2 -6 -10 -10 -6 -16 15
-11 41 -22 153 -15 153 9 0 32 189 24 202 -4 7 -3 9 1 5 5 -4 23 36 40 90 17
54 28 99 24 101 -9 4 59 194 72 203 5 3 27 55 48 115 21 60 52 147 69 194 17
46 29 87 26 91 -6 10 55 181 72 200 19 21 54 125 54 160 0 15 6 32 14 36 16 9
78 197 66 201 -4 2 -4 20 1 40 5 20 9 65 9 100 0 37 4 62 11 62 25 0 -20 175
-52 200 -10 8 -29 35 -42 60 -27 52 -135 140 -172 140 -13 0 -28 7 -32 15 -11
19 -155 85 -199 90 -49 7 -197 83 -188 97 5 7 2 9 -8 6 -19 -8 -173 106 -211
155 -15 20 -34 37 -42 37 -15 0 -128 68 -155 93 -25 23 -200 74 -200 58 0 -4
-24 -4 -52 0 -29 4 -74 8 -100 8 -27 1 -48 5 -48 10 0 8 -147 24 -210 22 -26
-1 -31 2 -20 9 13 8 13 10 -2 10 -9 0 -49 11 -89 25 -40 13 -76 22 -80 20 -8
-6 -192 63 -199 75 -6 9 -124 30 -168 30 -18 0 -32 -4 -32 -9z m180 -123 c28
-19 39 -39 66 -120 l33 -98 -400 0 c-440 0 -454 -2 -483 -59 -11 -20 -16 -59
-17 -111 0 -44 -5 -83 -10 -86 -5 -3 -5 -12 0 -22 4 -9 7 -55 5 -102 -3 -75
-6 -85 -21 -82 -15 3 -15 0 5 -20 21 -23 22 -31 22 -209 0 -153 -3 -188 -16
-207 -15 -21 -15 -25 1 -42 15 -16 17 -31 11 -85 -4 -35 -15 -85 -26 -111 -26
-59 -26 -114 0 -147 26 -33 30 -167 4 -167 -8 0 -29 -14 -46 -31 -28 -28 -30
-34 -25 -81 4 -27 10 -55 15 -62 5 -6 12 -23 15 -37 6 -23 2 -27 -44 -43 -27
-10 -52 -17 -54 -15 -2 2 -20 58 -40 124 -20 66 -116 362 -215 658 -98 295
-175 539 -171 541 3 2 133 45 289 96 156 50 281 94 279 97 -7 6 -587 -186
-587 -195 0 -3 83 -256 184 -562 102 -305 196 -596 210 -646 14 -50 28 -98 32
-107 4 -12 -14 -26 -78 -58 -45 -23 -107 -57 -136 -75 -29 -19 -54 -34 -57
-34 -2 0 -77 221 -166 490 -89 270 -163 489 -165 488 -3 -4 29 -116 51 -180 9
-26 15 -53 13 -60 -2 -6 3 -19 13 -29 9 -9 16 -27 15 -40 -1 -13 4 -30 11 -37
16 -16 16 -42 2 -79 -6 -15 -15 -52 -20 -80 -17 -93 23 -181 77 -170 20 3 23
1 19 -14 -4 -10 -6 -41 -7 -69 0 -43 -4 -54 -34 -84 -37 -37 -40 -54 -22 -107
12 -36 56 -95 68 -92 4 1 5 -9 2 -22 -4 -23 -64 -86 -80 -85 -8 1 -736 1193
-739 1212 -3 13 472 308 495 308 6 0 13 -8 15 -17 3 -13 5 -14 6 -3 3 57 -36
37 -469 -233 -36 -23 -66 -42 -68 -43 -1 0 115 -194 259 -430 144 -236 313
-513 376 -617 l115 -188 -74 -77 c-40 -43 -89 -99 -108 -125 -19 -25 -37 -46
-40 -46 -3 0 -196 313 -430 697 -262 430 -426 709 -428 728 -5 45 11 70 71
108 47 30 555 339 669 407 26 15 59 36 74 45 l27 18 -17 -32 c-9 -17 -16 -39
-15 -49 0 -10 6 -3 13 15 14 39 52 82 73 82 8 0 12 4 9 9 -3 5 130 91 296 192
359 218 356 217 430 115 15 -21 28 -43 28 -47 0 -4 -167 -63 -371 -129 -204
-67 -369 -124 -366 -126 4 -4 242 74 1392 455 99 33 189 60 201 60 12 1 36 -9
54 -21z m1030 -246 c51 -25 61 -55 58 -165 l-3 -94 -360 128 c-389 139 -404
143 -455 94 -14 -14 -34 -47 -44 -75 l-18 -50 -337 0 -338 0 -6 -212 c-4 -116
-7 -433 -7 -705 0 -272 -4 -493 -9 -493 -23 0 -192 -33 -235 -45 -27 -8 -53
-15 -58 -15 -4 0 -8 355 -8 789 l0 788 21 27 c12 15 31 32 43 36 11 5 404 9
871 9 790 1 852 0 885 -17z m-464 -86 c115 -41 279 -99 364 -129 656 -232 991
-352 1028 -368 31 -13 47 -28 57 -53 17 -41 23 -20 -170 -561 -58 -165 -139
-392 -179 -505 -41 -113 -126 -355 -191 -537 -65 -183 -121 -333 -124 -333 -3
0 -25 37 -49 83 -24 45 -70 119 -102 165 -33 46 -60 87 -60 92 0 7 75 219 476
1344 41 115 73 211 71 213 -2 2 -60 23 -128 47 -68 25 -322 115 -563 200 -241
86 -441 155 -443 153 -2 -3 38 -19 89 -37 51 -18 158 -57 238 -85 80 -29 290
-103 467 -166 178 -63 323 -119 323 -125 0 -10 -42 -128 -375 -1064 -76 -212
-144 -404 -152 -426 l-14 -42 -127 127 -127 126 36 27 c20 15 44 37 53 50 23
32 20 83 -4 106 l-21 19 30 6 c16 4 44 19 63 35 25 22 38 27 53 21 40 -16 67
-9 100 24 19 19 37 47 40 63 4 16 16 49 27 74 12 25 22 54 23 65 1 11 4 22 5
25 1 3 3 10 4 15 13 76 20 95 37 100 29 10 23 22 -16 29 -21 4 -33 11 -29 18
4 5 -5 2 -20 -7 -14 -9 -33 -15 -41 -11 -8 3 -15 2 -15 -2 0 -4 -14 -16 -32
-26 -28 -17 -31 -17 -25 -3 4 10 4 17 1 17 -2 0 -8 -10 -13 -23 -7 -18 -21
-25 -64 -33 -48 -9 -54 -8 -50 6 5 20 -25 49 -35 33 -12 -18 -50 -33 -66 -27
-12 5 -15 2 -9 -12 5 -13 3 -15 -8 -9 -11 7 -12 6 -2 -6 13 -16 12 -36 -2 -59
-8 -13 -7 -13 10 0 13 11 19 12 22 3 2 -7 11 -9 19 -6 18 7 43 -13 40 -32 -3
-22 -39 -64 -49 -58 -6 4 -7 1 -2 -7 4 -7 4 -15 -1 -19 -5 -3 -17 -18 -26 -32
-9 -15 -26 -29 -37 -32 -12 -3 -19 -1 -15 4 3 5 0 9 -6 9 -7 0 -9 -7 -6 -16 3
-8 1 -25 -6 -37 -7 -12 -13 -27 -14 -34 -7 -38 -18 -43 -61 -23 l-42 19 16 31
c19 38 22 91 6 97 -7 3 -10 -4 -6 -19 4 -22 4 -22 -11 -4 -12 14 -12 21 -3 31
34 36 47 57 41 67 -5 8 -1 9 10 5 14 -5 15 -3 6 13 -9 16 -8 18 5 14 9 -4 15
-3 14 2 -4 15 23 64 32 58 5 -3 6 2 3 10 -3 9 -14 16 -24 16 -10 0 -31 3 -47
6 -25 5 -31 2 -36 -16 -4 -14 2 -29 15 -42 20 -20 20 -22 3 -35 -24 -16 -48
-17 -42 0 2 6 9 12 14 12 6 0 15 4 20 9 5 5 3 6 -4 2 -8 -4 -13 -1 -13 8 0 9
-4 16 -9 16 -6 0 -5 14 0 35 6 20 9 59 7 88 -3 46 -6 52 -26 55 -20 3 -22 8
-18 36 3 18 10 45 16 60 5 15 10 29 10 31 0 4 -37 -13 -149 -68 -100 -50 -136
-122 -91 -180 11 -14 20 -29 20 -34 0 -4 -4 -2 -9 5 -7 12 -13 11 -37 -1 -16
-8 -37 -24 -47 -35 -16 -17 -27 -20 -70 -16 -29 3 -57 1 -63 -3 -22 -16 -64
-86 -64 -108 0 -36 -19 -45 -73 -33 -26 5 -47 14 -47 18 0 5 16 53 36 107 19
54 94 262 165 463 122 342 247 690 264 735 6 14 5 17 -3 10 -14 -13 -115 -286
-262 -705 -37 -107 -102 -287 -143 -400 l-74 -205 -39 1 c-22 1 -97 5 -167 9
-111 7 -127 10 -122 24 4 9 74 205 156 436 82 231 154 431 160 444 6 14 55
150 110 304 55 154 104 288 110 298 11 21 56 48 80 49 8 0 110 -33 225 -74z
m-371 -113 c-9 -36 -12 -38 -30 -23 -12 10 -16 9 -21 -4 -3 -9 -1 -23 6 -31 9
-11 6 -31 -15 -95 -16 -44 -32 -80 -37 -80 -5 0 -7 -4 -3 -9 3 -5 -2 -29 -11
-53 -8 -24 -20 -61 -25 -83 -6 -22 -18 -58 -28 -80 -10 -22 -26 -65 -35 -95
-12 -43 -23 -60 -51 -78 -40 -25 -43 -37 -16 -53 16 -11 17 -15 5 -38 -8 -14
-14 -32 -14 -38 0 -7 -15 -30 -34 -50 -81 -91 -103 -152 -75 -205 17 -32 -27
-138 -58 -138 -67 0 -105 -54 -101 -144 1 -30 0 -57 -2 -59 -3 -3 -29 -7 -57
-9 l-53 -5 0 698 0 699 331 0 331 0 -7 -27z m-235 -652 c-12 -23 -30 -28 -30
-10 0 12 32 40 38 34 2 -2 -1 -13 -8 -24z m-760 -41 c0 -5 -5 -10 -11 -10 -5
0 -7 5 -4 10 3 6 8 10 11 10 2 0 4 -4 4 -10z m683 -155 c-3 -9 -8 -14 -10 -11
-3 3 -2 9 2 15 9 16 15 13 8 -4z m1397 -299 c0 -2 -8 -10 -17 -17 -16 -13 -17
-12 -4 4 13 16 21 21 21 13z m-65 -24 c-3 -3 -11 0 -18 7 -9 10 -8 11 6 5 10
-3 15 -9 12 -12z m-537 -60 c20 -16 22 -21 12 -47 -6 -17 -11 -32 -12 -35 0
-3 -4 -10 -10 -17 -5 -7 -7 -17 -3 -24 6 -8 10 -7 16 2 6 11 11 11 20 2 12
-12 3 -37 -11 -28 -14 8 1 -33 16 -46 11 -9 11 -15 3 -25 -13 -16 -39 -19 -39
-5 0 16 18 22 23 9 3 -7 6 -8 6 -2 1 5 -6 19 -14 30 -8 10 -15 15 -14 9 5 -26
-43 -99 -56 -87 -5 4 -5 2 -1 -5 4 -7 1 -21 -6 -32 -13 -21 -13 -21 -24 0 -10
20 -11 20 -18 3 -4 -10 -4 -15 0 -12 3 4 14 -1 23 -12 22 -25 98 -33 110 -12
7 12 9 6 9 -20 0 -57 -8 -60 -73 -20 -33 20 -63 41 -67 46 -4 6 -8 7 -8 3 0
-4 -6 -3 -12 3 -7 6 -22 17 -33 25 -17 13 -18 16 -5 25 8 5 10 10 5 10 -6 0
-15 -4 -20 -9 -16 -14 -55 6 -55 28 0 11 12 29 28 41 15 12 20 18 12 14 -10
-5 -9 -1 3 14 11 11 16 25 12 31 -4 7 0 8 11 4 11 -4 15 -2 11 4 -7 11 38 55
47 46 5 -5 22 28 47 94 9 24 30 22 67 -5z m92 13 c0 -18 16 -20 26 -3 4 7 3 8
-4 4 -7 -4 -12 -2 -12 4 0 14 22 8 27 -7 4 -11 -35 -39 -42 -31 -10 12 -15 48
-6 48 6 0 11 -7 11 -15z m465 -15 c3 -6 -1 -7 -9 -4 -18 7 -21 14 -7 14 6 0
13 -4 16 -10z m-719 -24 c16 5 16 4 4 -5 -22 -15 -28 -14 -40 12 -10 20 -10
20 3 4 9 -11 22 -15 33 -11z m-59 -12 c-3 -3 -12 -4 -19 -1 -8 3 -5 6 6 6 11
1 17 -2 13 -5z m111 -19 c-3 -3 -9 2 -12 12 -6 14 -5 15 5 6 7 -7 10 -15 7
-18z m-179 -35 c0 -10 -3 -8 -9 5 -12 27 -12 43 0 25 5 -8 9 -22 9 -30z m361
9 c0 -5 -4 -7 -10 -4 -6 3 -10 -4 -10 -17 -1 -21 -1 -22 -11 -4 -9 14 -8 20 2
27 19 12 29 11 29 -2z m260 -109 c0 -5 -5 -10 -11 -10 -5 0 -7 5 -4 10 3 6 8
10 11 10 2 0 4 -4 4 -10z m40 -35 c0 -5 -5 -3 -10 5 -5 8 -10 20 -10 25 0 6 5
3 10 -5 5 -8 10 -19 10 -25z m-113 19 c-3 -3 -12 -4 -19 -1 -8 3 -5 6 6 6 11
1 17 -2 13 -5z m-1547 -258 l0 -243 -62 -23 c-120 -43 -248 -117 -343 -197
-22 -19 -47 -32 -55 -30 -8 2 -104 58 -212 124 l-197 120 77 75 c149 144 328
260 525 340 54 22 233 76 255 77 9 1 12 -54 12 -243z m786 219 c156 -43 344
-130 493 -229 67 -45 271 -221 271 -234 0 -7 -400 -252 -412 -252 -3 0 -44 28
-90 63 -90 68 -207 132 -305 167 l-63 23 0 243 c0 134 3 244 8 244 4 0 48 -11
98 -25z m534 -26 c-13 -30 -14 -30 -27 -13 -12 16 -11 21 9 36 29 22 34 16 18
-23z m-35 -57 c-3 -3 -12 3 -19 14 -8 10 -18 15 -22 11 -5 -4 -2 -12 6 -17 9
-6 10 -10 3 -10 -21 0 -25 21 -8 41 18 18 18 18 32 -8 7 -14 11 -28 8 -31z
m-762 -387 c93 -16 187 -44 187 -56 0 -5 -14 -31 -30 -58 l-30 -49 -73 20
c-104 30 -361 30 -465 2 -67 -19 -73 -19 -87 -4 -8 9 -15 21 -15 27 0 5 -9 18
-20 28 -32 29 -24 43 35 60 148 43 352 55 498 30z m62 -195 c101 -27 229 -87
308 -144 134 -95 267 -259 328 -405 101 -240 97 -529 -9 -764 -117 -257 -352
-454 -632 -528 -111 -30 -347 -33 -452 -6 -345 86 -603 329 -704 662 -25 83
-28 104 -28 260 0 143 3 182 22 247 92 332 356 596 677 676 121 31 120 31 270
27 104 -2 161 -9 220 -25z m666 -248 c66 -87 143 -241 174 -346 14 -49 25 -90
25 -93 0 -2 -30 -3 -66 -1 l-66 3 -27 80 c-46 134 -112 249 -204 350 l-45 51
36 59 36 58 44 -49 c25 -27 67 -77 93 -112z m-1642 97 l32 -50 -49 -57 c-98
-113 -193 -289 -217 -399 l-7 -33 -68 0 -69 0 20 73 c30 106 79 214 144 313
53 82 159 204 176 204 4 0 21 -23 38 -51z m-611 -354 l209 -125 -15 -62 c-22
-87 -22 -369 0 -456 l15 -63 -210 -125 c-161 -97 -212 -123 -218 -113 -20 33
-70 277 -81 397 -15 160 -1 343 37 502 26 109 44 170 50 170 1 0 97 -56 213
-125z m2921 63 c54 -167 76 -338 68 -542 -3 -83 -13 -189 -22 -235 -15 -79
-62 -241 -69 -241 -7 0 -392 232 -403 243 -8 9 -8 28 4 77 21 90 21 342 0 435
-9 39 -12 74 -8 78 10 10 394 244 403 246 3 0 16 -27 27 -61z m-3349 -317 c0
-13 -14 -21 -101 -56 -42 -17 -109 -52 -150 -77 -75 -47 -229 -172 -229 -186
0 -5 55 -40 123 -80 67 -40 129 -77 136 -82 12 -7 6 -18 -30 -57 -25 -26 -60
-70 -79 -98 -38 -56 -100 -190 -100 -219 0 -24 -9 -20 -157 71 -68 41 -126 73
-128 71 -12 -11 -46 -172 -56 -257 -12 -111 0 -254 32 -374 17 -61 25 -77 37
-72 8 3 71 39 139 80 l124 75 10 -28 c50 -138 102 -227 177 -304 29 -30 43
-51 37 -57 -6 -5 -66 -42 -135 -82 -69 -40 -127 -74 -129 -76 -9 -6 64 -75
139 -132 95 -72 213 -133 330 -171 50 -16 96 -30 101 -30 5 0 9 71 9 161 l0
161 23 -6 c12 -4 61 -12 109 -18 84 -11 189 -5 291 18 l27 6 0 -161 c0 -88 2
-161 4 -161 3 0 42 12 88 26 113 35 248 103 337 170 48 36 79 53 90 49 13 -5
12 -9 -9 -26 -182 -144 -361 -225 -572 -259 -119 -19 -330 -8 -451 23 -354 93
-652 363 -776 703 -50 136 -66 233 -65 394 1 206 43 374 136 540 103 184 289
364 468 455 123 63 200 88 200 66z m3686 -46 c120 -56 202 -112 298 -204 191
-184 302 -398 341 -655 17 -119 18 -190 5 -296 -51 -392 -287 -717 -645 -886
-140 -66 -261 -95 -428 -101 -210 -8 -376 26 -550 113 -138 69 -263 163 -238
179 6 3 42 -16 79 -44 87 -66 235 -142 340 -175 46 -14 85 -26 88 -26 2 0 4
73 4 161 l0 161 28 -6 c15 -3 66 -11 115 -18 83 -12 187 -5 290 18 l27 6 0
-161 0 -161 28 6 c122 30 291 112 402 195 75 57 148 126 139 132 -2 2 -64 38
-136 81 l-133 78 49 57 c86 100 143 201 177 318 2 8 55 -19 139 -68 75 -45
139 -78 142 -75 3 3 14 36 24 73 29 102 41 263 29 377 -10 100 -35 221 -49
244 -6 10 -41 -7 -141 -67 -73 -44 -137 -78 -142 -75 -4 3 -8 12 -8 21 0 22
-83 191 -113 231 -14 19 -44 54 -67 79 -23 24 -41 45 -39 47 2 2 64 38 137 82
72 43 132 82 132 86 0 13 -142 130 -214 177 -39 25 -109 62 -156 82 -53 23
-86 43 -88 54 -5 22 14 16 134 -40z m-2876 -392 c29 -119 108 -263 206 -379
l54 -63 -34 -56 -33 -56 -33 33 c-136 136 -237 309 -289 496 l-20 72 68 0 69
0 12 -47z m2064 20 c-46 -192 -137 -363 -275 -516 -58 -65 -57 -65 -103 14
l-26 45 35 34 c77 75 174 238 215 361 11 35 23 70 25 77 3 8 26 12 70 12 l65
0 -6 -27z m-3035 -135 l20 -33 -28 -30 c-66 -71 -128 -179 -150 -262 -11 -41
-13 -43 -51 -43 -21 0 -41 4 -44 8 -8 14 50 169 85 229 35 57 125 163 139 163
4 0 17 -15 29 -32z m170 -23 c1 -11 -8 -26 -19 -33 -33 -21 -26 -65 16 -97 32
-24 72 -90 61 -101 -2 -2 -60 -7 -128 -11 -110 -7 -118 -8 -69 -14 30 -4 89
-7 131 -8 l77 -1 16 -41 c9 -22 14 -44 11 -49 -3 -5 -1 -11 5 -15 14 -9 13
-232 -1 -241 -7 -4 -7 -10 -1 -16 23 -23 82 42 82 89 0 12 7 7 21 -17 17 -27
19 -38 10 -52 -9 -15 -8 -18 8 -18 19 0 61 -43 61 -61 0 -5 -31 -9 -68 -9
-129 0 -402 -13 -396 -19 3 -3 116 -8 251 -11 l245 -6 36 -44 c19 -25 87 -97
149 -160 62 -62 109 -118 105 -122 -24 -24 -163 -60 -253 -65 -367 -21 -669
262 -669 628 0 206 95 395 260 515 48 35 57 31 59 -21z m3767 1 c27 -29 65
-79 84 -112 40 -67 93 -215 81 -227 -5 -5 -24 -7 -42 -5 -31 3 -35 7 -59 73
-32 86 -68 149 -120 208 -22 25 -40 50 -40 56 0 15 30 61 40 61 4 0 30 -24 56
-54z m-172 3 c256 -204 316 -568 137 -842 -158 -242 -467 -347 -740 -252 -45
16 -81 32 -81 35 0 4 31 35 69 69 39 34 105 103 147 154 92 110 76 105 349
107 105 1 199 5 210 9 18 7 -221 21 -372 21 -40 0 -73 4 -73 9 0 5 13 23 30
41 16 17 29 35 28 38 -3 12 25 62 33 62 5 0 7 -6 5 -12 -3 -7 -7 -26 -11 -41
-6 -28 -5 -28 37 -25 l43 3 1 70 c1 39 2 97 3 129 l1 59 25 -23 c14 -13 25
-29 25 -37 0 -7 5 -13 10 -13 6 0 10 18 10 40 0 38 -1 40 -31 40 -26 0 -30 3
-24 18 4 9 12 29 17 45 10 26 12 27 86 28 43 0 100 4 127 9 l50 7 -55 2 c-30
1 -85 4 -122 7 l-66 7 11 26 c6 14 16 29 21 32 5 4 5 12 1 18 -5 8 1 10 18 6
19 -5 28 -2 36 13 16 31 13 53 -10 78 -17 18 -20 30 -14 63 4 23 9 41 12 41 3
0 28 -18 57 -41z m-2544 -517 c98 -75 169 -115 281 -161 l89 -36 3 -243 2
-243 -35 6 c-86 16 -266 83 -382 142 -139 72 -299 187 -395 285 l-62 63 202
122 c111 67 206 122 210 123 5 0 44 -26 87 -58z m1716 -64 c112 -67 204 -125
204 -130 0 -14 -195 -179 -280 -237 -94 -65 -247 -144 -355 -184 -66 -25 -210
-67 -227 -67 -5 0 -8 110 -8 244 l0 243 63 23 c97 35 228 107 308 170 41 32
78 59 83 59 4 1 100 -54 212 -121z m-1176 7 c101 -19 239 -18 346 1 135 25
133 26 167 -30 36 -58 37 -57 -88 -87 -171 -41 -396 -36 -553 12 -37 12 -68
22 -70 24 -2 2 11 26 29 55 30 49 34 52 63 45 17 -3 65 -13 106 -20z m-1906
-145 c28 -80 64 -144 116 -203 46 -52 47 -56 21 -97 l-18 -31 -56 61 c-31 33
-73 90 -93 126 -35 63 -86 202 -79 215 2 3 22 3 45 0 40 -6 41 -7 64 -71z
m4248 54 c-18 -111 -119 -292 -205 -367 -19 -17 -20 -17 -38 13 -11 17 -19 35
-19 41 0 6 20 33 43 59 46 51 106 157 127 225 7 22 14 42 15 45 2 3 20 4 42 4
31 -1 37 -5 35 -20z m-3393 -498 c12 -18 21 -36 21 -38 0 -3 -28 -14 -62 -24
-111 -32 -368 -21 -422 19 -14 11 -14 15 8 41 l23 30 59 -14 c75 -17 234 -15
299 3 28 8 51 15 52 16 1 0 11 -14 22 -33z m2661 2 c60 0 128 7 157 15 l53 14
20 -35 c12 -19 19 -36 17 -38 -2 -2 -32 -11 -68 -21 -90 -24 -282 -24 -366 1
-35 10 -63 21 -63 24 0 2 9 19 20 37 l20 32 52 -14 c30 -8 98 -15 158 -15z"/>
<path d="M3914 5935 c-8 -19 4 -35 26 -35 13 0 17 5 13 19 -6 25 -32 35 -39
16z"/>
<path d="M3268 5918 c-9 -7 -27 -35 -41 -63 l-25 -50 -11 30 c-7 17 -14 36
-17 44 -3 10 -8 11 -15 4 -14 -14 40 -183 58 -183 14 0 16 15 4 45 -5 11 -4
28 1 38 8 16 13 15 56 -16 32 -24 53 -32 66 -28 15 6 9 14 -38 46 -31 21 -56
43 -56 49 0 6 9 26 21 45 23 38 22 58 -3 39z"/>
<path d="M3566 5778 c-20 -55 -36 -104 -36 -108 0 -5 41 -37 90 -70 l90 -61
11 28 c32 82 69 187 66 188 -1 1 -43 29 -94 62 l-91 61 -36 -100z"/>
<path d="M3887 5863 c-16 -15 -5 -31 23 -35 35 -5 54 11 38 32 -8 13 -9 12 -5
-2 8 -25 -5 -30 -20 -8 -15 21 -25 25 -36 13z"/>
<path d="M3086 5680 c3 -14 11 -32 16 -40 6 -10 7 -7 2 10 -3 14 -11 32 -16
40 -6 10 -7 7 -2 -10z"/>
<path d="M3277 5618 c-8 -24 -18 -50 -21 -59 -6 -14 15 -34 90 -82 9 -5 18 10
30 45 9 29 19 58 21 64 3 8 -87 74 -102 74 -2 0 -10 -19 -18 -42z"/>
<path d="M3064 5626 c-8 -20 3 -36 20 -30 16 6 51 -69 41 -87 -5 -7 -4 -10 2
-6 6 4 13 -3 16 -15 4 -12 9 -20 12 -17 11 11 -41 139 -63 154 -20 14 -23 15
-28 1z"/>
<path d="M3047 5543 c-13 -12 13 -30 38 -25 24 4 24 5 8 18 -20 15 -36 17 -46
7z"/>
<path d="M2777 5493 c-3 -5 -17 -49 -31 -100 -26 -89 -27 -93 -10 -128 21 -45
49 -65 91 -65 35 0 73 29 73 56 0 27 19 4 26 -31 7 -40 7 -40 39 -19 l24 15
-32 29 -32 29 33 1 c61 0 97 66 69 126 -22 46 -50 61 -142 79 -91 17 -102 18
-108 8z"/>
<path d="M2433 5458 c-6 -7 -16 -37 -23 -67 -12 -53 -13 -54 -29 -34 -9 11
-21 29 -28 39 -10 17 -12 17 -18 3 -6 -16 80 -169 95 -169 17 0 17 14 0 43
-31 52 -13 65 50 39 49 -20 70 -21 70 -3 0 4 -27 19 -59 33 l-60 26 14 51 c13
49 8 64 -12 39z"/>
<path d="M3162 5455 c0 -5 6 -26 13 -45 7 -19 14 -28 14 -20 0 8 -6 29 -14 45
-7 17 -13 26 -13 20z"/>
<path d="M2486 5184 c-21 -62 -20 -76 5 -108 25 -31 42 -33 70 -5 l20 20 6
-20 c6 -23 18 -27 28 -10 4 6 -1 17 -11 24 -18 14 -18 14 2 15 49 0 59 69 14
101 -14 9 -46 20 -71 24 l-47 6 -16 -47z"/>
<path d="M3235 5080 c-8 -25 1 -40 23 -40 16 1 16 1 0 10 -10 6 -14 18 -11 30
7 26 -4 26 -12 0z"/>
<path d="M4100 6049 c0 -76 3 -100 13 -97 6 3 14 22 17 44 7 53 29 54 60 4 24
-39 47 -56 59 -45 6 6 4 8 -43 75 l-29 41 38 39 c56 57 21 50 -37 -7 l-48 -47
0 47 c0 35 -4 47 -15 47 -12 0 -15 -18 -15 -101z"/>
<path d="M4141 5894 c-17 -13 -22 -24 -19 -46 3 -20 1 -27 -8 -24 -19 7 -54
-23 -54 -48 0 -33 24 -50 61 -42 27 5 30 4 24 -14 -5 -16 -2 -20 19 -20 29 0
30 3 15 33 -9 18 -9 20 2 10 17 -16 61 -17 77 -1 30 30 -7 95 -45 81 -13 -5
-13 -2 -4 15 13 25 6 49 -20 62 -23 13 -20 13 -48 -6z"/>
<path d="M5125 6098 c-2 -7 -16 -45 -30 -84 -29 -83 -29 -84 -12 -84 7 0 20
15 28 33 20 45 40 40 58 -15 16 -46 36 -76 45 -67 3 3 -4 33 -15 68 -10 35
-18 65 -17 66 2 2 23 12 47 25 29 14 40 25 33 32 -6 6 -30 -1 -71 -21 -33 -17
-61 -29 -61 -26 0 3 7 22 15 42 18 44 18 43 0 43 -9 0 -18 -6 -20 -12z"/>
<path d="M5032 5838 c-7 -7 -12 -23 -12 -36 0 -29 39 -102 54 -102 26 1 100
47 107 66 11 32 -17 67 -46 60 -14 -4 -28 0 -35 9 -15 18 -51 20 -68 3z"/>
<path d="M5356 5809 c-36 -43 -33 -79 15 -168 23 -42 43 -78 45 -80 1 -1 42
12 90 30 68 26 91 39 105 63 27 44 24 87 -6 116 -21 19 -31 22 -70 17 -27 -4
-45 -3 -45 3 0 22 -41 50 -74 50 -26 0 -41 -7 -60 -31z"/>
<path d="M5855 5710 c-3 -5 -3 -15 0 -21 4 -5 -1 -20 -12 -32 -18 -21 -18 -21
2 -7 29 22 54 54 48 62 -6 11 -31 10 -38 -2z"/>
<path d="M5760 5677 c0 -7 4 -17 9 -22 6 -6 1 -20 -14 -37 -12 -15 -26 -24
-29 -21 -3 4 -6 2 -6 -3 0 -6 19 -10 43 -11 72 -1 169 -13 188 -24 11 -5 19
-16 19 -24 0 -23 19 -18 31 9 6 13 20 27 30 29 23 6 25 32 4 40 -16 7 -20 3
-29 -35 -7 -32 -21 -35 -47 -12 -10 9 -57 21 -115 29 -55 7 -93 13 -87 14 13
1 43 51 43 71 0 5 -9 10 -20 10 -11 0 -20 -6 -20 -13z"/>
<path d="M5943 5649 c-4 -15 -11 -19 -26 -15 -13 3 -16 1 -10 -5 16 -16 73 1
73 22 0 26 -31 24 -37 -2z"/>
<path d="M5692 5634 c2 -11 11 -20 22 -22 13 -3 17 1 14 14 -2 11 -11 20 -22
22 -13 3 -17 -1 -14 -14z"/>
<path d="M5950 5606 c0 -2 8 -10 18 -17 15 -13 16 -12 3 4 -13 16 -21 21 -21
13z"/>
<path d="M5724 5542 c-1 -15 1 -21 3 -14 3 6 9 9 15 6 6 -4 5 2 -1 15 -15 27
-16 27 -17 -7z"/>
<path d="M5766 5544 c-5 -14 -4 -15 9 -4 17 14 19 20 6 20 -5 0 -12 -7 -15
-16z"/>
<path d="M5806 5535 c-11 -8 -15 -15 -9 -15 7 0 15 5 18 10 4 6 11 8 16 5 5
-4 9 -1 9 4 0 15 -11 13 -34 -4z"/>
<path d="M5929 5533 c6 -12 16 -25 21 -28 17 -11 11 5 -11 28 l-21 22 11 -22z"/>
<path d="M5730 5499 c0 -8 -13 -28 -30 -44 -16 -16 -30 -39 -30 -52 0 -16 -12
-31 -42 -49 -24 -15 -44 -28 -46 -29 -2 -2 -8 -24 -15 -50 -12 -46 -14 -48
-52 -52 -22 -2 -44 -8 -48 -12 -5 -5 10 -5 32 -1 23 4 44 3 47 -1 3 -5 23 -6
45 -3 23 4 39 3 39 -3 0 -11 26 -11 52 1 20 9 58 -10 58 -29 0 -8 -4 -15 -10
-15 -5 0 -10 5 -10 10 0 19 -17 10 -28 -15 -16 -36 -15 -45 7 -45 27 0 35 -30
14 -46 -24 -18 -30 -17 -36 6 -3 11 -1 20 4 20 5 0 9 -4 9 -10 0 -5 7 -7 16
-3 14 5 12 8 -7 19 -22 12 -26 11 -46 -14 -13 -15 -23 -32 -23 -39 0 -7 -7
-16 -16 -21 -8 -5 -16 -15 -17 -23 -2 -8 -7 -20 -11 -28 -8 -12 0 -13 50 -6
32 4 66 7 75 7 9 0 42 26 74 58 32 33 63 56 68 53 6 -3 7 -1 4 4 -8 13 37 60
65 69 31 9 46 -12 22 -32 -18 -15 -18 -15 3 -5 35 17 38 13 9 -14 -14 -13 -26
-29 -26 -35 0 -5 -5 -10 -11 -10 -5 0 -7 5 -3 12 4 7 3 8 -5 4 -6 -4 -9 -11
-7 -15 3 -4 -7 -20 -21 -35 -22 -24 -24 -31 -14 -52 11 -25 12 -24 91 57 76
79 79 83 60 96 -11 8 -20 22 -20 31 0 13 3 12 16 -6 26 -37 51 -45 99 -32 39
11 45 16 56 56 12 39 17 44 44 45 17 1 22 3 13 6 -19 5 -25 23 -8 23 6 0 10 4
10 10 0 5 -8 7 -17 3 -15 -5 -16 -3 -5 8 17 18 15 30 -3 23 -11 -5 -13 -2 -9
10 5 12 2 15 -12 9 -13 -5 -16 -3 -11 10 3 9 2 17 -3 17 -6 0 -10 -4 -10 -10
0 -5 -4 -10 -10 -10 -5 0 -7 7 -4 15 7 18 -12 20 -19 3 -4 -10 -8 -9 -16 2 -9
12 -11 9 -11 -16 0 -25 -5 -33 -22 -37 -13 -2 -31 -8 -40 -12 -14 -6 -18 -2
-18 17 0 14 -11 56 -25 93 -14 40 -23 82 -20 99 2 17 2 25 -1 19 -3 -7 -22
-14 -42 -15 l-37 -1 33 -4 c17 -2 32 -9 32 -15 0 -5 -6 -8 -14 -5 -7 3 -54 9
-105 12 -68 6 -94 12 -101 24 -8 14 -9 14 -10 0z m190 -99 c9 -15 1 -87 -12
-112 -9 -18 -38 -25 -38 -10 -1 21 -22 35 -59 39 -32 3 -43 0 -53 -17 -7 -11
-15 -20 -19 -20 -10 0 -9 119 1 125 5 3 7 11 4 18 -3 8 9 19 27 28 29 14 34
13 86 -12 31 -15 59 -32 63 -39z m-63 -126 c9 -12 9 -21 2 -30 -13 -16 -52 -6
-45 12 3 8 1 14 -3 14 -5 0 -11 -7 -15 -15 -10 -28 -36 -17 -36 15 0 30 1 31
42 26 24 -3 48 -12 55 -22z m180 -26 c4 10 11 5 24 -14 10 -15 16 -31 13 -36
-3 -4 -2 -13 2 -20 5 -8 9 -7 13 4 5 15 9 14 29 -3 13 -10 21 -23 17 -29 -10
-16 -25 -12 -19 5 4 8 1 15 -5 15 -6 0 -11 -6 -11 -12 -1 -16 -90 80 -90 95 0
7 5 6 11 -3 9 -12 12 -12 16 -2z m-292 -107 c-3 -5 -1 -12 4 -15 5 -3 12 2 16
12 7 16 8 15 15 -3 5 -14 2 -24 -12 -34 -23 -15 -24 -14 -33 22 -5 18 -3 27 5
27 6 0 9 -4 5 -9z m72 -43 c-3 -8 -6 -5 -6 6 -1 11 2 17 5 13 3 -3 4 -12 1
-19z m-22 -19 c4 -5 -1 -19 -10 -30 -17 -18 -19 -18 -31 -1 -11 14 -10 19 3
30 20 15 30 15 38 1z m-125 -34 c0 -8 -10 -20 -22 -26 -22 -12 -22 -11 -5 8 9
11 14 23 10 26 -3 4 -1 7 5 7 7 0 12 -7 12 -15z m63 -22 c-5 -12 -3 -14 8 -8
12 8 12 6 0 -8 -17 -21 -37 -22 -45 -1 -10 25 -7 32 12 37 24 5 32 -1 25 -20z
m-53 -32 c0 -5 -11 -8 -25 -8 -13 0 -22 3 -19 8 3 5 14 9 25 9 10 0 19 -4 19
-9z"/>
<path d="M5863 5413 c-16 -6 -17 -33 -2 -33 5 0 8 4 4 9 -3 5 3 11 12 13 10 2
14 6 8 9 -5 4 -16 4 -22 2z"/>
<path d="M5760 5390 c0 -5 5 -10 10 -10 6 0 10 5 10 10 0 6 -4 10 -10 10 -5 0
-10 -4 -10 -10z"/>
<path d="M6040 5220 c0 -5 5 -10 10 -10 6 0 10 5 10 10 0 6 -4 10 -10 10 -5 0
-10 -4 -10 -10z"/>
<path d="M5765 5071 c-3 -5 -1 -12 5 -16 5 -3 10 1 10 9 0 18 -6 21 -15 7z"/>
<path d="M5706 5015 c4 -8 8 -15 10 -15 2 0 4 7 4 15 0 8 -4 15 -10 15 -5 0
-7 -7 -4 -15z"/>
<path d="M5795 5024 c-17 -13 -25 -24 -19 -24 6 0 17 7 24 15 7 9 19 14 27 11
7 -3 13 -1 13 4 0 19 -16 17 -45 -6z"/>
<path d="M5860 5040 c0 -5 5 -10 10 -10 6 0 10 5 10 10 0 6 -4 10 -10 10 -5 0
-10 -4 -10 -10z"/>
<path d="M5952 5010 c-23 -22 -27 -30 -14 -30 7 1 46 50 39 50 -2 0 -13 -9
-25 -20z"/>
<path d="M5994 5014 c-18 -14 -18 -15 4 -4 12 6 22 13 22 15 0 8 -5 6 -26 -11z"/>
<path d="M5530 5000 c-9 -6 -10 -10 -3 -10 6 0 15 5 18 10 8 12 4 12 -15 0z"/>
<path d="M6064 4988 l-19 -23 23 19 c12 11 22 21 22 23 0 8 -8 2 -26 -19z"/>
<path d="M5757 4975 c-15 -11 -16 -17 -7 -34 6 -12 13 -21 16 -21 2 0 0 9 -6
19 -8 16 -6 22 7 30 10 5 16 12 13 14 -3 3 -13 -1 -23 -8z"/>
<path d="M5690 4950 c-12 -8 -11 -10 7 -10 16 0 21 -4 16 -16 -3 -8 -12 -13
-19 -10 -8 3 -24 1 -36 -4 -21 -8 -20 -9 9 -9 17 -1 40 -4 50 -7 14 -4 15 -4
4 4 -11 8 -10 12 5 20 15 8 16 13 5 26 -16 19 -21 19 -41 6z"/>
<path d="M5620 4870 c0 -5 9 -10 20 -10 11 0 20 5 20 10 0 6 -9 10 -20 10 -11
0 -20 -4 -20 -10z"/>
<path d="M5638 4833 c6 -2 10 -9 7 -14 -4 -5 1 -6 9 -3 24 9 19 24 -6 23 -13
0 -17 -3 -10 -6z"/>
<path d="M5684 4724 c-18 -14 -18 -15 4 -4 12 6 22 13 22 15 0 8 -5 6 -26 -11z"/>
<path d="M5559 4683 c-13 -16 -12 -17 4 -4 9 7 17 15 17 17 0 8 -8 3 -21 -13z"/>
<path d="M5656 4688 c3 -4 9 -8 15 -8 5 0 9 4 9 8 0 5 -7 9 -15 9 -8 0 -12 -4
-9 -9z"/>
<path d="M5565 4620 c-3 -6 1 -7 9 -4 18 7 21 14 7 14 -6 0 -13 -4 -16 -10z"/>
<path d="M5556 4591 c-3 -5 1 -11 9 -14 9 -4 12 -1 8 9 -6 16 -10 17 -17 5z"/>
<path d="M4505 5975 c-28 -27 -32 -63 -11 -103 l14 -28 -34 4 c-66 8 -117 -52
-93 -110 26 -63 92 -77 140 -29 32 33 38 21 15 -34 -17 -40 -13 -45 32 -45 34
0 34 1 27 33 -20 90 -21 86 12 50 53 -57 135 -32 149 44 5 27 1 37 -25 64 -29
28 -37 31 -76 27 l-44 -5 19 25 c44 55 7 132 -65 132 -25 0 -44 -8 -60 -25z"/>
<path d="M4844 5955 c-3 -8 -3 -19 1 -25 8 -12 62 -13 69 -1 4 5 -2 7 -13 4
-12 -3 -20 2 -24 16 -6 24 -25 28 -33 6z"/>
<path d="M4786 5892 c-6 -11 6 -27 26 -35 9 -3 24 -22 33 -41 20 -42 28 -47
19 -12 -4 17 0 27 13 36 16 10 15 11 -9 7 -22 -3 -29 1 -37 24 -9 27 -34 39
-45 21z"/>
<path d="M4849 5883 c-13 -16 -12 -17 4 -4 9 7 17 15 17 17 0 8 -8 3 -21 -13z"/>
<path d="M5418 4683 c6 -2 9 -10 6 -15 -4 -7 -2 -8 5 -4 13 9 5 26 -12 25 -9
0 -8 -2 1 -6z"/>
<path d="M5310 4640 c-9 -6 -10 -10 -3 -10 6 0 15 5 18 10 8 12 4 12 -15 0z"/>
<path d="M4330 3690 c-22 -22 -26 -51 -11 -79 8 -15 6 -17 -18 -13 -35 5 -75
-39 -65 -72 14 -49 80 -63 108 -23 16 22 16 22 10 -8 -4 -16 -7 -34 -8 -39 0
-5 10 -10 24 -10 14 0 24 5 23 10 -1 5 -5 23 -8 39 -7 30 -7 30 9 8 34 -46
106 -18 106 40 0 31 -40 62 -70 54 -21 -5 -28 7 -10 18 19 12 10 53 -16 74
-33 26 -49 26 -74 1z"/>
<path d="M4614 3648 c-22 -29 -43 -58 -47 -64 -4 -7 15 -39 41 -72 l49 -60 40
51 c21 29 43 57 47 64 4 7 -13 37 -40 73 -26 33 -48 60 -48 60 -1 0 -20 -24
-42 -52z"/>
<path d="M4883 3650 c-29 -27 -55 -61 -59 -75 -13 -51 54 -106 92 -75 12 11
13 8 8 -19 -6 -27 -4 -31 15 -31 18 0 20 4 14 33 -5 26 -3 30 8 20 35 -33 92
3 92 58 0 23 -12 43 -53 84 -30 30 -57 55 -60 55 -3 0 -28 -23 -57 -50z"/>
<path d="M4009 3666 c-18 -9 -25 -21 -27 -51 -3 -36 2 -45 47 -89 l50 -50 23
19 c77 65 88 79 88 117 0 29 -6 41 -26 54 -24 16 -27 16 -56 -1 -18 -10 -33
-14 -37 -8 -11 17 -38 21 -62 9z"/>
<path d="M4105 3360 c-99 -4 -220 -8 -270 -9 -60 -1 -85 -5 -74 -11 29 -17
735 -28 1123 -18 204 5 376 13 384 17 32 18 -857 34 -1163 21z"/>
<path d="M3734 3178 c-4 -6 0 -16 9 -23 15 -11 17 -35 17 -178 0 -142 -2 -166
-16 -171 -13 -5 -14 -9 -4 -21 9 -10 32 -15 76 -15 63 0 86 12 65 33 -7 7 -11
74 -11 199 l0 188 -64 0 c-38 0 -68 -5 -72 -12z"/>
<path d="M3886 3181 c-4 -6 0 -21 8 -33 22 -31 22 -160 1 -178 -42 -35 8 -54
64 -25 60 31 74 150 24 205 -30 32 -86 50 -97 31z"/>
<path d="M4105 3168 c-45 -35 -65 -91 -65 -188 0 -61 6 -96 19 -126 20 -45 63
-84 92 -84 20 0 26 24 9 35 -6 4 -10 73 -10 175 0 102 4 171 10 175 17 11 11
35 -9 35 -10 0 -31 -10 -46 -22z"/>
<path d="M4180 3182 c0 -5 7 -17 15 -28 22 -30 21 -315 -1 -350 -24 -36 -6
-48 36 -25 20 10 46 37 60 62 22 39 25 56 25 139 -1 105 -21 162 -69 193 -26
18 -66 23 -66 9z"/>
<path d="M4354 3179 c-3 -6 -1 -16 5 -22 7 -7 11 -68 11 -177 0 -109 -4 -170
-11 -177 -21 -21 2 -33 67 -33 51 0 66 3 71 17 4 9 1 19 -5 21 -15 5 -17 342
-2 342 6 0 10 9 10 20 0 18 -7 20 -69 20 -40 0 -73 -5 -77 -11z"/>
<path d="M4535 3179 c-4 -5 0 -18 9 -28 22 -24 21 -32 -19 -111 l-35 -70 19
-77 c14 -54 17 -81 10 -90 -20 -23 2 -33 71 -33 72 0 91 10 68 37 -7 9 -29 71
-49 139 -36 121 -36 123 -19 152 10 16 28 37 40 45 37 26 19 47 -39 47 -27 0
-53 -5 -56 -11z"/>
<path d="M4694 3179 c-3 -6 -1 -16 5 -22 7 -7 11 -68 11 -177 0 -109 -4 -170
-11 -177 -21 -21 2 -33 62 -33 l59 0 0 210 0 210 -59 0 c-33 0 -63 -5 -67 -11z"/>
<path d="M4840 3175 c0 -9 13 -27 29 -41 16 -13 32 -36 35 -50 12 -47 31 -21
31 42 l0 59 -47 3 c-39 3 -48 0 -48 -13z"/>
<path d="M4975 3180 c-4 -6 0 -19 9 -29 22 -25 24 -322 2 -341 -31 -25 -7 -40
64 -40 69 0 91 10 71 34 -6 7 -12 85 -13 197 l-3 184 -62 3 c-37 2 -64 -1 -68
-8z"/>
<path d="M5120 3171 c0 -10 7 -24 15 -31 22 -18 21 -123 -2 -145 -15 -16 -15
-19 0 -45 11 -18 17 -50 17 -88 0 -53 3 -63 26 -81 36 -28 50 -26 86 9 31 31
33 56 4 54 -12 -1 -16 7 -16 40 0 46 -22 86 -48 86 -14 0 -14 3 4 18 83 67 42
202 -61 202 -18 0 -25 -5 -25 -19z"/>
<path d="M4858 3031 c-10 -20 -18 -41 -18 -46 0 -18 35 -84 44 -82 4 2 8 38 8
82 0 44 -4 80 -8 82 -5 1 -17 -15 -26 -36z"/>
<path d="M4897 2860 c-10 -21 -27 -42 -38 -45 -10 -4 -19 -15 -19 -26 0 -18 6
-20 48 -17 l47 3 3 63 c4 74 -13 83 -41 22z"/>
<path d="M4145 2669 c-159 -5 -315 -13 -345 -17 -47 -7 -34 -9 100 -15 510
-23 727 -23 1230 0 254 11 106 21 -535 37 -88 2 -290 0 -450 -5z"/>
<path d="M2797 2209 c-68 -40 -67 -232 2 -269 11 -5 21 -10 23 -10 2 0 3 65 3
145 0 80 -2 145 -5 145 -3 0 -13 -5 -23 -11z"/>
<path d="M2548 2198 c8 -8 12 -50 12 -123 0 -73 -4 -115 -12 -123 -9 -9 1 -12
45 -12 53 0 67 7 51 23 -4 4 -7 22 -8 42 -1 31 2 35 25 35 39 0 69 38 69 88 0
66 -23 82 -117 82 -60 0 -74 -3 -65 -12z m107 -73 c0 -32 -4 -60 -10 -62 -6
-2 -10 23 -10 62 0 39 4 64 10 62 6 -2 10 -30 10 -62z"/>
<path d="M6265 2075 l0 -135 47 0 c47 0 47 1 42 28 -3 15 -6 75 -7 132 l-2
105 -40 3 -40 3 0 -136z"/>
<path d="M6367 2094 c2 -85 6 -123 18 -140 19 -30 49 -31 70 -1 14 20 14 22 0
25 -10 2 -15 15 -15 37 0 18 -7 38 -15 45 -14 12 -14 15 0 30 35 39 8 120 -41
120 -19 0 -20 -7 -17 -116z"/>
<path d="M6179 2107 c-7 -16 -8 -34 -3 -51 14 -41 29 -35 32 13 4 54 -12 75
-29 38z"/>
<path d="M6209 1998 c-7 -13 -18 -27 -25 -31 -25 -14 -15 -27 21 -27 33 0 35
2 35 34 0 43 -15 54 -31 24z"/>
</g>
</svg>
